<?xml version="1.0" standalone="no"?>
<!DOCTYPE svg PUBLIC "-//W3C//DTD SVG 20010904//EN"
 "http://www.w3.org/TR/2001/REC-SVG-20010904/DTD/svg10.dtd">
<svg version="1.0" xmlns="http://www.w3.org/2000/svg"
 width="622.000000pt" height="622.000000pt" viewBox="0 0 622.000000 622.000000"
 preserveAspectRatio="xMidYMid meet">
<metadata>
Created by potrace 1.14, written by Peter Selinger 2001-2017
</metadata>
<g transform="translate(0.000000,622.000000) scale(0.100000,-0.100000)"
fill="#000000" stroke="none">
<path d="M3058 5304 c-39 -16 -79 -79 -73 -112 2 -9 4 -25 4 -36 1 -10 17 -34
37 -52 29 -28 43 -34 77 -34 47 0 100 27 118 61 16 31 13 96 -6 125 -34 53
-97 72 -157 48z"/>
<path d="M1384 5199 c-43 -12 -82 -54 -90 -97 -13 -69 52 -147 120 -144 76 3
126 54 126 127 0 78 -79 136 -156 114z"/>
<path d="M4754 5190 c-43 -19 -74 -63 -74 -104 0 -126 157 -176 228 -73 70
103 -40 229 -154 177z"/>
<path d="M1694 4673 c-22 -7 -55 -29 -73 -47 -114 -118 -41 -312 122 -322 198
-11 283 245 116 348 -52 33 -109 40 -165 21z"/>
<path d="M4410 4674 c-88 -28 -133 -89 -134 -180 0 -54 4 -69 29 -106 93 -134
291 -106 342 48 13 38 7 106 -12 144 -42 81 -138 121 -225 94z"/>
<path d="M3043 4517 c-105 -39 -151 -155 -105 -260 64 -144 270 -147 342 -6
79 153 -75 326 -237 266z"/>
<path d="M633 4135 c-44 -19 -67 -58 -68 -116 0 -41 5 -53 31 -80 80 -79 214
-25 214 88 0 41 -35 92 -75 109 -42 17 -61 17 -102 -1z"/>
<path d="M5505 4141 c-11 -4 -30 -11 -41 -15 -52 -18 -68 -125 -27 -181 40
-55 142 -58 187 -4 35 41 41 70 25 120 -21 64 -89 101 -144 80z"/>
<path d="M1375 3777 c-47 -15 -93 -55 -116 -100 -17 -33 -20 -52 -16 -100 7
-76 37 -120 103 -153 128 -63 274 27 274 169 0 127 -127 223 -245 184z"/>
<path d="M4737 3779 c-44 -12 -95 -56 -118 -101 -16 -32 -20 -54 -17 -99 5
-75 37 -122 104 -155 163 -80 331 85 255 252 -37 81 -138 127 -224 103z"/>
<path d="M2944 3745 c-143 -25 -253 -78 -332 -158 -74 -75 -102 -147 -98 -252
4 -102 29 -158 103 -226 94 -85 219 -137 543 -225 69 -18 171 -67 194 -93 10
-11 21 -36 26 -55 14 -65 -50 -131 -159 -163 -70 -21 -206 -24 -274 -6 -75 19
-186 76 -239 122 l-45 40 -89 -89 c-49 -50 -90 -94 -92 -99 -8 -23 125 -122
233 -172 129 -60 224 -81 365 -80 84 0 123 4 194 17 141 26 285 109 349 201
75 108 90 268 37 374 -68 132 -201 206 -535 300 -177 49 -267 87 -290 123 -38
57 -12 111 73 153 53 26 65 28 187 28 146 0 207 -14 299 -70 l53 -32 99 95 98
95 -34 29 c-52 43 -184 105 -275 129 -99 25 -289 32 -391 14z"/>
<path d="M1749 3194 c-168 -51 -278 -232 -247 -406 23 -127 113 -232 233 -273
175 -59 359 17 442 185 24 48 28 67 28 150 0 85 -3 101 -29 155 -38 77 -113
148 -185 176 -68 27 -178 33 -242 13z"/>
<path d="M4272 3195 c-109 -34 -180 -93 -228 -192 -26 -51 -29 -69 -29 -153 0
-85 3 -101 29 -152 135 -267 504 -271 641 -8 61 117 48 268 -34 376 -88 117
-245 171 -379 129z"/>
<path d="M785 3040 c-140 -22 -211 -165 -140 -285 78 -135 281 -121 341 23 55
134 -60 284 -201 262z"/>
<path d="M5375 3040 c-67 -14 -125 -66 -146 -128 -16 -47 -5 -126 22 -164 89
-127 264 -114 335 24 21 41 19 121 -4 167 -38 72 -130 117 -207 101z"/>
<path d="M80 2962 c-61 -31 -83 -80 -67 -148 17 -69 102 -106 168 -73 47 24
69 59 69 112 0 91 -91 149 -170 109z"/>
<path d="M6044 2966 c-49 -21 -74 -61 -74 -117 0 -42 5 -53 36 -85 35 -34 40
-36 90 -32 60 5 88 24 109 74 23 55 -6 134 -55 154 -43 18 -74 19 -106 6z"/>
<path d="M1570 2369 c-210 -24 -377 -121 -445 -256 -27 -51 -30 -68 -30 -148
0 -126 32 -188 138 -268 82 -62 192 -105 447 -178 204 -57 280 -105 280 -176
0 -99 -106 -161 -285 -169 -145 -6 -278 40 -381 130 l-51 45 -91 -92 c-51 -51
-92 -97 -92 -104 0 -6 15 -22 34 -37 19 -14 40 -32 48 -39 25 -25 134 -87 193
-110 223 -87 491 -82 689 13 173 84 267 246 244 422 -24 189 -168 289 -577
399 -232 63 -306 109 -293 186 5 31 73 87 124 103 24 7 86 15 138 16 134 4
245 -24 335 -85 l31 -20 97 92 c53 51 97 95 97 99 0 11 -92 72 -152 102 -135
65 -332 95 -498 75z"/>
<path d="M4530 2364 c-41 -6 -102 -22 -135 -34 -68 -26 -185 -90 -185 -102 0
-4 -5 -8 -11 -8 -19 0 -136 -128 -174 -190 -82 -135 -115 -259 -110 -414 3
-120 22 -193 74 -301 99 -201 290 -350 506 -395 214 -45 474 18 625 149 l45
40 -101 101 -101 102 -34 -32 c-101 -92 -248 -130 -374 -96 -78 20 -133 53
-195 115 -178 176 -188 471 -24 659 88 101 200 151 324 147 108 -4 156 -20
234 -80 25 -19 50 -35 54 -35 4 0 51 44 105 98 l98 98 -23 20 c-35 31 -117 80
-180 108 -123 54 -280 73 -418 50z"/>
<path d="M3007 1886 c-62 -17 -138 -70 -182 -127 -125 -164 -79 -412 95 -517
120 -71 241 -74 363 -9 68 36 117 89 154 167 34 71 38 188 9 265 -67 178 -252
271 -439 221z"/>
</g>
</svg>
